<?xml version="1.0" encoding="UTF-8"?>
<svg version="1.1" xmlns="http://www.w3.org/2000/svg" width="481" height="519">
<path d="M0 0 C7.28678439 1.76847801 13.69751332 5.82576689 20.16210938 9.52294922 C23.40423305 11.37314849 26.68407128 13.14767868 29.9765625 14.90625 C30.57210937 15.22674316 31.16765625 15.54723633 31.78125 15.87744141 C36.68712748 18.49086497 41.69078489 20.86742608 46.7265625 23.21875 C55.65431284 27.38923337 64.36359476 31.90832596 73.05322266 36.55126953 C77.24881328 38.78897422 81.4567357 41.00321596 85.6640625 43.21875 C86.42976563 43.62343506 87.19546875 44.02812012 87.984375 44.44506836 C88.71785156 44.83186768 89.45132813 45.21866699 90.20703125 45.6171875 C90.9139209 45.99069336 91.62081055 46.36419922 92.34912109 46.74902344 C93.79840311 47.49478664 95.2605358 48.2159719 96.73291016 48.91503906 C97.80677979 49.42502441 97.80677979 49.42502441 98.90234375 49.9453125 C99.54212158 50.24002441 100.18189941 50.53473633 100.84106445 50.83837891 C103.63562738 52.55624875 104.42484506 54.62747705 105.1640625 57.71875 C105.4662051 60.740176 105.24821666 62.92861205 104.4765625 65.84375 C103.8165625 65.84375 103.1565625 65.84375 102.4765625 65.84375 C101.9815625 67.32875 101.9815625 67.32875 101.4765625 68.84375 C99.28249597 70.11901276 97.14508189 71.21304688 94.8515625 72.28125 C93.37265293 72.99523533 91.89484999 73.71151594 90.41796875 74.4296875 C89.61762207 74.81737305 88.81727539 75.20505859 87.99267578 75.60449219 C83.55031481 77.79248212 79.17298142 80.10399728 74.7890625 82.40625 C72.82571269 83.43396036 70.86216385 84.46129055 68.8984375 85.48828125 C67.86912109 86.02662598 66.83980469 86.5649707 65.77929688 87.11962891 C55.03057411 92.7307673 44.25712758 98.29408837 33.4765625 103.84375 C32.09331787 104.55797119 32.09331787 104.55797119 30.68212891 105.28662109 C28.40863527 106.45824562 26.13128435 107.62180383 23.8515625 108.78125 C23.22515869 109.10512695 22.59875488 109.42900391 21.95336914 109.76269531 C19.22576735 111.13724711 17.58460763 111.84375 14.4765625 111.84375 C14.4765625 112.50375 14.4765625 113.16375 14.4765625 113.84375 C13.4453125 114.276875 12.4140625 114.71 11.3515625 115.15625 C8.94229897 116.1722045 6.76747633 117.24261097 4.4765625 118.53125 C0.25163606 120.37965532 -3.35875541 120.50518064 -7.7734375 119.15625 C-11.10121814 116.66041452 -12.3551266 113.97383749 -12.9609375 109.90625 C-12.39217051 105.92488104 -11.00473029 104.00507083 -8.5234375 100.84375 C-6.24993399 99.34140974 -4.19831597 98.14338911 -1.7734375 96.96875 C-0.78706299 96.46686157 -0.78706299 96.46686157 0.21923828 95.95483398 C2.29748173 94.90193276 4.38580865 93.87154936 6.4765625 92.84375 C7.79218295 92.1872315 9.1072963 91.52969571 10.421875 90.87109375 C12.39924307 89.88130091 14.3774287 88.8934443 16.35913086 87.91235352 C21.21960452 85.50055196 26.00941173 82.97384933 30.7890625 80.40625 C36.86937579 77.14338543 43.0318662 74.12702434 49.2890625 71.21875 C56.61848001 67.81161749 63.60216891 64.11108814 70.4765625 59.84375 C61.53575009 55.06351366 52.57275312 50.35314198 43.48461914 45.85864258 C38.04268479 43.15590579 32.69357454 40.29690308 27.34399414 37.41674805 C20.19264551 33.61152527 12.86368295 30.18482456 5.49389648 26.82495117 C-1.38727082 23.6196544 -8.22131615 20.29693202 -12.5234375 13.84375 C-13.09811738 9.49260232 -12.77014819 7.31164958 -10.7109375 3.40625 C-7.5155177 0.17561896 -4.43766421 -0.23922718 0 0 Z " fill="#EFEFEF" transform="translate(303.5234375,180.15625)"/>
<path d="M0 0 C2.81277053 1.77031829 3.36495901 2.8990602 5 6 C5.793421 10.44315761 5.53739162 12.22820327 2.94921875 15.9453125 C-0.12239332 19.45105156 -3.67398742 21.33805005 -7.8125 23.375 C-8.55878662 23.7558374 -9.30507324 24.1366748 -10.07397461 24.52905273 C-12.37608211 25.69963643 -14.68706871 26.85097941 -17 28 C-18.37022794 28.69054125 -19.74003766 29.38191314 -21.109375 30.07421875 C-25.72161826 32.39849435 -30.35043623 34.68894304 -34.97949219 36.97949219 C-49.15755461 44.00214016 -63.14060184 51.36685415 -77 59 C-73.0271221 62.44932035 -68.94324504 64.72622653 -64.25 67 C-63.54423828 67.34740234 -62.83847656 67.69480469 -62.11132812 68.05273438 C-57.12647654 70.4925194 -52.10164028 72.81358274 -47 75 C-47 75.66 -47 76.32 -47 77 C-45.97326172 77.13728516 -45.97326172 77.13728516 -44.92578125 77.27734375 C-41.34396712 78.16203749 -38.3799749 79.77632943 -35.1875 81.5625 C-33.85254407 82.2921633 -32.5165711 83.01996834 -31.1796875 83.74609375 C-30.49229492 84.11976074 -29.80490234 84.49342773 -29.09667969 84.87841797 C-25.70194904 86.6943696 -22.25995598 88.41185722 -18.8125 90.125 C-17.81561157 90.62471313 -17.81561157 90.62471313 -16.79858398 91.13452148 C-13.70592983 92.67989627 -10.606819 94.18073292 -7.46484375 95.625 C2.64195261 100.34068627 2.64195261 100.34068627 5 106 C5.67837276 110.07023658 5.18283017 111.6658621 3.1875 115.3125 C1 118 1 118 -2 119 C-8.28039415 119.62803941 -12.53365013 117.77655866 -18 115 C-18 114.34 -18 113.68 -18 113 C-19.32 113 -20.64 113 -22 113 C-22 112.34 -22 111.68 -22 111 C-22.67546875 110.9071875 -23.3509375 110.814375 -24.046875 110.71875 C-27.73103445 109.82207627 -30.90260605 108.22800573 -34.25 106.5 C-34.94673828 106.14615234 -35.64347656 105.79230469 -36.36132812 105.42773438 C-42.15782618 102.46991455 -47.90446893 99.41802562 -53.64599609 96.35522461 C-58.35386282 93.8500474 -63.09571622 91.42828722 -67.875 89.0625 C-74.65542942 85.70606078 -81.35447304 82.20865175 -88.03417969 78.65625 C-91.75658001 76.68241237 -95.48524286 74.74301556 -99.28125 72.9140625 C-99.93399902 72.59832275 -100.58674805 72.28258301 -101.25927734 71.95727539 C-103.00458634 71.12024877 -104.75599338 70.29597078 -106.5078125 69.47265625 C-109 68 -109 68 -110 65 C-110.66 65 -111.32 65 -112 65 C-113.04717722 60.33530149 -113.1837112 57.09487705 -111.15307617 52.69702148 C-108.9747682 49.49113143 -105.74121056 48.1715209 -102.3125 46.5625 C-101.17844727 45.99692383 -101.17844727 45.99692383 -100.02148438 45.41992188 C-97.689825 44.2608872 -95.34568169 43.13032319 -93 42 C-90.98115221 40.99883653 -88.96668452 39.98929241 -86.95263672 38.97851562 C-85.6420278 38.32173636 -84.32982497 37.66812893 -83.01611328 37.01757812 C-78.18910932 34.62355415 -73.43394246 32.11185123 -68.6875 29.5625 C-62.64780886 26.32194524 -56.52831278 23.32478916 -50.3125 20.4375 C-44.6673601 17.81172164 -39.19492665 15.06909369 -33.8125 11.9375 C-8.79727947 -2.58652407 -8.79727947 -2.58652407 0 0 Z " fill="#EEEEEE" transform="translate(185,181)"/>
<path d="M0 0 C2.4140625 0.44921875 2.4140625 0.44921875 5.4765625 2.57421875 C7.6374454 5.78069015 8.07997939 7.62843731 8.4140625 11.44921875 C7.8125 14.23828125 7.8125 14.23828125 6.7890625 17.07421875 C6.41394531 18.1209375 6.03882813 19.16765625 5.65234375 20.24609375 C4.08287421 24.30592032 2.40802118 28.3135235 0.69921875 32.31640625 C-0.67295517 35.66134084 -1.88996049 39.03749749 -3.0859375 42.44921875 C-4.96707349 47.80547513 -7.0477341 53.02609975 -9.265625 58.25 C-13.36463534 68.18221735 -16.94572743 78.34228256 -20.5859375 88.44921875 C-21.2459375 88.44921875 -21.9059375 88.44921875 -22.5859375 88.44921875 C-22.68559814 89.42503906 -22.78525879 90.40085937 -22.88793945 91.40625 C-23.53680388 95.9091448 -25.08910531 99.92224777 -26.75390625 104.13671875 C-27.07120193 104.95688477 -27.38849762 105.77705078 -27.71540833 106.62207031 C-28.7278366 109.23386918 -29.75051873 111.84151327 -30.7734375 114.44921875 C-31.4414181 116.16901351 -32.1087414 117.88906372 -32.77539062 119.609375 C-36.22926655 128.50522294 -39.74601988 137.37463415 -43.3059082 146.22851562 C-44.40107314 148.98407843 -45.45911964 151.74809669 -46.4921875 154.52734375 C-46.76160156 155.23246094 -47.03101563 155.93757812 -47.30859375 156.6640625 C-47.84248102 158.06182767 -48.35987553 159.46596992 -48.86328125 160.875 C-50.27352235 164.48494732 -51.31555381 166.27013802 -54.58203125 168.43359375 C-58.45351703 169.74254863 -60.66629999 169.58947693 -64.5859375 168.44921875 C-67.63117968 166.13218666 -69.23819302 164.51499118 -70.4296875 160.86328125 C-70.65113008 156.02476088 -69.03464906 152.44020037 -67.2109375 148.01171875 C-66.8495166 147.10010986 -66.4880957 146.18850098 -66.11572266 145.24926758 C-65.34532024 143.30807142 -64.56894631 141.36923625 -63.78710938 139.43261719 C-61.80735702 134.51542739 -59.8887373 129.57444787 -57.9609375 124.63671875 C-57.57744141 123.65993164 -57.19394531 122.68314453 -56.79882812 121.67675781 C-54.48603813 115.78332307 -52.23402564 109.87295702 -50.03466797 103.9362793 C-47.47466248 97.07238357 -44.77330306 90.26399193 -42.0859375 83.44921875 C-38.4440678 74.21033699 -34.84864753 64.96162137 -31.40185547 55.64794922 C-21.40334151 28.70401842 -21.40334151 28.70401842 -16.5859375 16.44921875 C-16.16699219 15.35996094 -15.74804688 14.27070313 -15.31640625 13.1484375 C-14.88972656 12.07207031 -14.46304688 10.99570313 -14.0234375 9.88671875 C-13.65089844 8.93667969 -13.27835937 7.98664063 -12.89453125 7.0078125 C-9.73543522 0.8310725 -6.64120673 -0.28406341 0 0 Z " fill="#EFEFEF" transform="translate(271.5859375,155.55078125)"/>
<path d="M0 0 C0.99 0 1.98 0 3 0 C3.33 0.99 3.66 1.98 4 3 C4.66 2.01 5.32 1.02 6 0 C6.99 0 7.98 0 9 0 C9 0.66 9 1.32 9 2 C10.74991334 2.02715383 12.49994945 2.04646551 14.25 2.0625 C15.22453125 2.07410156 16.1990625 2.08570313 17.203125 2.09765625 C19.89388476 2.1077081 19.89388476 2.1077081 22 1.46875 C24.68998878 0.83828388 27.01132249 1.14407027 29.75 1.4375 C30.73484375 1.53933594 31.7196875 1.64117187 32.734375 1.74609375 C33.85585938 1.87177734 33.85585938 1.87177734 35 2 C35 1.34 35 0.68 35 0 C36.65 0 38.3 0 40 0 C40 0.66 40 1.32 40 2 C40.928125 1.7215625 40.928125 1.7215625 41.875 1.4375 C44 1 44 1 46 2 C48.52733235 2.65555119 48.52733235 2.65555119 51 3 C51.33 2.67 51.66 2.34 52 2 C53.66617115 1.95936168 55.33388095 1.957279 57 2 C57 1.34 57 0.68 57 0 C57.99 0 58.98 0 60 0 C60.495 0.99 60.495 0.99 61 2 C61.66 2 62.32 2 63 2 C63 3.32 63 4.64 63 6 C63.99 6.33 64.98 6.66 66 7 C66.33 5.35 66.66 3.7 67 2 C67.804375 2.185625 68.60875 2.37125 69.4375 2.5625 C70.283125 2.706875 71.12875 2.85125 72 3 C72.33 2.67 72.66 2.34 73 2 C75.53049402 1.92686433 78.03304837 1.90752473 80.5625 1.9375 C81.62887695 1.94426758 81.62887695 1.94426758 82.71679688 1.95117188 C84.47790013 1.96299136 86.23896036 1.98092737 88 2 C88.495 2.99 88.495 2.99 89 4 C89.66 2.68 90.32 1.36 91 0 C105.25 0 105.25 0 110 1 C110.495 2.485 110.495 2.485 111 4 C111.66 2.68 112.32 1.36 113 0 C113.99 0 114.98 0 116 0 C116.495 0.99 116.495 0.99 117 2 C117.66 1.34 118.32 0.68 119 0 C120.67004829 0.31595508 122.33637583 0.65179959 124 1 C124.86625 0.814375 125.7325 0.62875 126.625 0.4375 C129 0 129 0 132 2 C132 1.34 132 0.68 132 0 C134.64 0 137.28 0 140 0 C141.85776765 3.13498292 142.20140476 5.37471432 142 9 C135.375 10 135.375 10 132 10 C131.67 9.34 131.34 8.68 131 8 C130.34 8.66 129.68 9.32 129 10 C126.72265625 10.1953125 126.72265625 10.1953125 124.0625 10.125 C123.18722656 10.10695313 122.31195313 10.08890625 121.41015625 10.0703125 C120.61480469 10.04710937 119.81945312 10.02390625 119 10 C118.01 10 117.02 10 116 10 C115.05125 9.814375 114.1025 9.62875 113.125 9.4375 C110.01399533 9.00195935 108.01538317 9.26652842 105 10 C101.33333333 10 97.66666667 10 94 10 C94 8.02 94 6.04 94 4 C93.34 4 92.68 4 92 4 C91.67 5.98 91.34 7.96 91 10 C90.01 10.33 89.02 10.66 88 11 C87.01 10.34 86.02 9.68 85 9 C83.65835921 9.2981424 82.32676508 9.64141484 81 10 C78.32706209 10.10096585 75.67647442 10.04316894 73 10 C72.34 10 71.68 10 71 10 C39.75 10 39.75 10 34 9 C33.505 7.02 33.505 7.02 33 5 C33 6.65 33 8.3 33 10 C6 10 6 10 2 9 C1.34 6.03 0.68 3.06 0 0 Z M126 3 C126 4.32 126 5.64 126 7 C126.66 7 127.32 7 128 7 C128 5.68 128 4.36 128 3 C127.34 3 126.68 3 126 3 Z M17 5 C18 7 18 7 18 7 Z M27 5 C27.33 5.66 27.66 6.32 28 7 C28.33 6.34 28.66 5.68 29 5 C28.34 5 27.68 5 27 5 Z M47 5 C47 5.66 47 6.32 47 7 C47.66 7 48.32 7 49 7 C49 6.34 49 5.68 49 5 C48.34 5 47.68 5 47 5 Z M53 5 C53 5.66 53 6.32 53 7 C53.66 7 54.32 7 55 7 C55 6.34 55 5.68 55 5 C54.34 5 53.68 5 53 5 Z M68 5 C68 5.66 68 6.32 68 7 C68.66 7 69.32 7 70 7 C70 6.34 70 5.68 70 5 C69.34 5 68.68 5 68 5 Z M75 5 C75.33 5.66 75.66 6.32 76 7 C76.33 6.34 76.66 5.68 77 5 C76.34 5 75.68 5 75 5 Z M100 5 C101 7 101 7 101 7 Z M107 5 C106.67 5.66 106.34 6.32 106 7 C106.66 7 107.32 7 108 7 C107.67 6.34 107.34 5.68 107 5 Z M120 5 C121 7 121 7 121 7 Z " fill="#8C8C8C" transform="translate(326,496)"/>
<path d="M0 0 C0.99 0 1.98 0 3 0 C3.99 2.31 4.98 4.62 6 7 C6.6496875 5.5459375 6.6496875 5.5459375 7.3125 4.0625 C9 1 9 1 12 0 C12 1.32 12 2.64 12 4 C12.928125 3.95875 13.85625 3.9175 14.8125 3.875 C18 4 18 4 21 6 C21 5.34 21 4.68 21 4 C23.97 4 26.94 4 30 4 C30 3.34 30 2.68 30 2 C30.99 2 31.98 2 33 2 C33 2.66 33 3.32 33 4 C38.61 4 44.22 4 50 4 C50 3.34 50 2.68 50 2 C53 0 53 0 55.875 0.3125 C56.90625 0.539375 57.9375 0.76625 59 1 C59.94875 1.185625 60.8975 1.37125 61.875 1.5625 C62.57625 1.706875 63.2775 1.85125 64 2 C64 2.66 64 3.32 64 4 C67.3 4 70.6 4 74 4 C74 4.66 74 5.32 74 6 C74.99 6 75.98 6 77 6 C77 5.34 77 4.68 77 4 C78.99954746 3.95745644 81.00041636 3.95919217 83 4 C83.495 4.495 83.495 4.495 84 5 C84.33 3.35 84.66 1.7 85 0 C85.99 0 86.98 0 88 0 C88 1.98 88 3.96 88 6 C88.66 6 89.32 6 90 6 C90 5.34 90 4.68 90 4 C91.32 4.33 92.64 4.66 94 5 C93.67 5.66 93.34 6.32 93 7 C92.34 7 91.68 7 91 7 C91.99 9.31 92.98 11.62 94 14 C92.68 14 91.36 14 90 14 C89.505 13.01 89.505 13.01 89 12 C88.67 12.66 88.34 13.32 88 14 C87.360625 13.814375 86.72125 13.62875 86.0625 13.4375 C85.381875 13.293125 84.70125 13.14875 84 13 C83.67 13.33 83.34 13.66 83 14 C76.28 13.28 76.28 13.28 75 12 C74.67 12.66 74.34 13.32 74 14 C66 14 66 14 62.9375 13.4375 C61.968125 13.293125 60.99875 13.14875 60 13 C59.67 13.33 59.34 13.66 59 14 C55.5625 14.1875 55.5625 14.1875 52 14 C51.34 13.34 50.68 12.68 50 12 C50.375 9.875 50.375 9.875 51 8 C50.01 7.67 49.02 7.34 48 7 C47.67 9.31 47.34 11.62 47 14 C46.360625 13.814375 45.72125 13.62875 45.0625 13.4375 C44.0415625 13.2209375 44.0415625 13.2209375 43 13 C42.67 13.33 42.34 13.66 42 14 C39.5625 14.1875 39.5625 14.1875 37 14 C35 12 35 12 34.875 9.375 C34.91625 8.59125 34.9575 7.8075 35 7 C34.34 7 33.68 7 33 7 C33.495 10.465 33.495 10.465 34 14 C32.68 14 31.36 14 30 14 C29.67 12.35 29.34 10.7 29 9 C28.01 9 27.02 9 26 9 C26 8.34 26 7.68 26 7 C25.01 7 24.02 7 23 7 C23.66 8.32 24.32 9.64 25 11 C26.32 10.67 27.64 10.34 29 10 C28.34 11.32 27.68 12.64 27 14 C21.55690852 14 16.3927895 13.82965992 11 13 C10.67 11.68 10.34 10.36 10 9 C9.34 10.65 8.68 12.3 8 14 C6.68 14 5.36 14 4 14 C3.32739649 12.23141309 2.66211605 10.46003984 2 8.6875 C1.62875 7.70136719 1.2575 6.71523438 0.875 5.69921875 C0 3 0 3 0 0 Z M11 4 C12 6 12 6 12 6 Z M53 4 C53.33 4.66 53.66 5.32 54 6 C57.02934491 6.65772428 57.02934491 6.65772428 60 7 C60 6.34 60 5.68 60 5 C57.69 4.67 55.38 4.34 53 4 Z M38 7 C38.33 8.65 38.66 10.3 39 12 C39.66 11.67 40.32 11.34 41 11 C41 9.68 41 8.36 41 7 C40.01 7 39.02 7 38 7 Z M64 7 C64 8.65 64 10.3 64 12 C64.66 12 65.32 12 66 12 C66 10.35 66 8.7 66 7 C65.34 7 64.68 7 64 7 Z M70 7 C69.67 7.99 69.34 8.98 69 10 C69.66 10.66 70.32 11.32 71 12 C71.66 10.68 72.32 9.36 73 8 C72.01 7.67 71.02 7.34 70 7 Z M79 7 C79 8.32 79 9.64 79 11 C80.98 10.67 82.96 10.34 85 10 C84.67 9.34 84.34 8.68 84 8 C83.01 8.495 83.01 8.495 82 9 C82 8.34 82 7.68 82 7 C81.01 7 80.02 7 79 7 Z M53 9 C53.33 9.66 53.66 10.32 54 11 C54.99 11 55.98 11 57 11 C57 10.34 57 9.68 57 9 C55.68 9 54.36 9 53 9 Z " fill="#969696" transform="translate(12,492)"/>
<path d="M0 0 C14.25 0 14.25 0 19 1 C19.33 1.99 19.66 2.98 20 4 C20.66 2.68 21.32 1.36 22 0 C22.99 0 23.98 0 25 0 C25.495 0.99 25.495 0.99 26 2 C26.66 1.34 27.32 0.68 28 0 C29.67004829 0.31595508 31.33637583 0.65179959 33 1 C33.86625 0.814375 34.7325 0.62875 35.625 0.4375 C38 0 38 0 41 2 C41 1.34 41 0.68 41 0 C43.64 0 46.28 0 49 0 C50.85776765 3.13498292 51.20140476 5.37471432 51 9 C44.375 10 44.375 10 41 10 C40.505 9.01 40.505 9.01 40 8 C39.34 8.66 38.68 9.32 38 10 C35.72265625 10.1953125 35.72265625 10.1953125 33.0625 10.125 C32.18722656 10.10695313 31.31195313 10.08890625 30.41015625 10.0703125 C29.61480469 10.04710937 28.81945312 10.02390625 28 10 C27.01 10 26.02 10 25 10 C23.576875 9.7215625 23.576875 9.7215625 22.125 9.4375 C19.01399533 9.00195935 17.01538317 9.26652842 14 10 C10.33333333 10 6.66666667 10 3 10 C3 8.02 3 6.04 3 4 C2.34 4 1.68 4 1 4 C0.67 5.98 0.34 7.96 0 10 C-0.99 10.33 -1.98 10.66 -3 11 C-3.99 10.34 -4.98 9.68 -6 9 C-6.99 9.33 -7.98 9.66 -9 10 C-9 8.35 -9 6.7 -9 5 C-9.66 5 -10.32 5 -11 5 C-11 4.34 -11 3.68 -11 3 C-4.84765625 2.90234375 -4.84765625 2.90234375 -3 3 C-2.67 3.33 -2.34 3.66 -2 4 C-1.34 2.68 -0.68 1.36 0 0 Z M35 3 C35 4.32 35 5.64 35 7 C35.66 7 36.32 7 37 7 C37 5.68 37 4.36 37 3 C36.34 3 35.68 3 35 3 Z M9 5 C10 7 10 7 10 7 Z M16 5 C15.67 5.66 15.34 6.32 15 7 C15.66 7 16.32 7 17 7 C16.67 6.34 16.34 5.68 16 5 Z M29 5 C30 7 30 7 30 7 Z " fill="#B5B5B4" transform="translate(417,496)"/>
<path d="M0 0 C0.99 0 1.98 0 3 0 C3.33 0.66 3.66 1.32 4 2 C4.66 2 5.32 2 6 2 C6 3.32 6 4.64 6 6 C6.99 6.33 7.98 6.66 9 7 C9.33 5.35 9.66 3.7 10 2 C10.804375 2.185625 11.60875 2.37125 12.4375 2.5625 C13.7059375 2.7790625 13.7059375 2.7790625 15 3 C15.33 2.67 15.66 2.34 16 2 C18.53049402 1.92686433 21.03304837 1.90752473 23.5625 1.9375 C24.27341797 1.94201172 24.98433594 1.94652344 25.71679688 1.95117188 C27.47790013 1.96299136 29.23896036 1.98092737 31 2 C31 2.33 31 2.66 31 3 C28.36 3 25.72 3 23 3 C23.33 5.31 23.66 7.62 24 10 C16 10 8 10 0 10 C-0.66 8.35 -1.32 6.7 -2 5 C-1.67 4.67 -1.34 4.34 -1 4 C-2.32 3.34 -3.64 2.68 -5 2 C-3.35 2 -1.7 2 0 2 C0 1.34 0 0.68 0 0 Z M11 5 C11 5.66 11 6.32 11 7 C11.66 7 12.32 7 13 7 C13 6.34 13 5.68 13 5 C12.34 5 11.68 5 11 5 Z M18 5 C18.33 5.66 18.66 6.32 19 7 C19.33 6.34 19.66 5.68 20 5 C19.34 5 18.68 5 18 5 Z " fill="#7A7A7A" transform="translate(383,496)"/>
<path d="M0 0 C3 0.9375 3 0.9375 4.875 3.0625 C6.22533383 6.51335312 6.21614608 9.26301663 6 12.9375 C2.47940432 14.11103189 -0.306493 14.13896402 -4 13.9375 C-4.66 13.2775 -5.32 12.6175 -6 11.9375 C-5.5625 9.875 -5.5625 9.875 -5 7.9375 C-5.33 7.6075 -5.66 7.2775 -6 6.9375 C-6.25 4.5 -6.25 4.5 -6 1.9375 C-3 -0.0625 -3 -0.0625 0 0 Z M-3 3.9375 C-2.67 4.5975 -2.34 5.2575 -2 5.9375 C1.02934491 6.59522428 1.02934491 6.59522428 4 6.9375 C4 6.2775 4 5.6175 4 4.9375 C1.69 4.6075 -0.62 4.2775 -3 3.9375 Z M-3 8.9375 C-2.67 9.5975 -2.34 10.2575 -2 10.9375 C-1.01 10.9375 -0.02 10.9375 1 10.9375 C1 10.2775 1 9.6175 1 8.9375 C-0.32 8.9375 -1.64 8.9375 -3 8.9375 Z " fill="#989898" transform="translate(68,492.0625)"/>
<path d="M0 0 C1.65 0.33 3.3 0.66 5 1 C5 3.64 5 6.28 5 9 C4.67 9 4.34 9 4 9 C4 7.02 4 5.04 4 3 C3.01 3 2.02 3 1 3 C0.67 5.31 0.34 7.62 0 10 C-0.99 10.33 -1.98 10.66 -3 11 C-3.99 10.34 -4.98 9.68 -6 9 C-6.99 9.33 -7.98 9.66 -9 10 C-9 8.35 -9 6.7 -9 5 C-9.66 5 -10.32 5 -11 5 C-11 4.34 -11 3.68 -11 3 C-4.84765625 2.90234375 -4.84765625 2.90234375 -3 3 C-2.67 3.33 -2.34 3.66 -2 4 C-1.34 2.68 -0.68 1.36 0 0 Z " fill="#9C9C9C" transform="translate(417,496)"/>
<path d="M0 0 C0.99 0 1.98 0 3 0 C3 1.98 3 3.96 3 6 C3.66 6 4.32 6 5 6 C5 5.34 5 4.68 5 4 C6.32 4.33 7.64 4.66 9 5 C8.67 5.66 8.34 6.32 8 7 C7.34 7 6.68 7 6 7 C6.99 9.31 7.98 11.62 9 14 C7.68 14 6.36 14 5 14 C4.67 13.34 4.34 12.68 4 12 C3.67 12.66 3.34 13.32 3 14 C2.01 14 1.02 14 0 14 C-1.13016601 8.97703996 -0.77916092 5.02125926 0 0 Z " fill="#6D6D6D" transform="translate(97,492)"/>
<path d="M0 0 C0.99 0 1.98 0 3 0 C3.33 0.99 3.66 1.98 4 3 C4.66 2.01 5.32 1.02 6 0 C6.99 0 7.98 0 9 0 C9 0.66 9 1.32 9 2 C10.32 2.33 11.64 2.66 13 3 C12.67 4.65 12.34 6.3 12 8 C9.03 8.66 6.06 9.32 3 10 C0 3.375 0 3.375 0 0 Z " fill="#777777" transform="translate(326,496)"/>
<path d="M0 0 C1.98 0 3.96 0 6 0 C6 0.99 6 1.98 6 3 C5.34 3 4.68 3 4 3 C3.67 5.31 3.34 7.62 3 10 C0.03 9.67 -2.94 9.34 -6 9 C-5.34 8.34 -4.68 7.68 -4 7 C-3.35232207 4.42938689 -3.35232207 4.42938689 -3 2 C-4.32 1.67 -5.64 1.34 -7 1 C-4.69 1.33 -2.38 1.66 0 2 C0 1.34 0 0.68 0 0 Z " fill="#A8A8A8" transform="translate(56,496)"/>
<path d="M0 0 C2.97 0 5.94 0 9 0 C9.33 1.65 9.66 3.3 10 5 C9.34 5 8.68 5 8 5 C8 6.65 8 8.3 8 10 C5.36 10 2.72 10 0 10 C0 8.02 0 6.04 0 4 C-0.66 3.67 -1.32 3.34 -2 3 C-1.01 3 -0.02 3 1 3 C1.33 2.34 1.66 1.68 2 1 C1.34 0.67 0.68 0.34 0 0 Z M6 5 C7 7 7 7 7 7 Z " fill="#656666" transform="translate(420,496)"/>
<path d="M0 0 C3.96 0.33 7.92 0.66 12 1 C9.07735566 2.46132217 7.07536854 3.34099246 4 4 C5.32 4.66 6.64 5.32 8 6 C8.66 5.34 9.32 4.68 10 4 C10 5.65 10 7.3 10 9 C6.04 9 2.08 9 -2 9 C-1.34 8.34 -0.68 7.68 0 7 C0.16677282 3.41656024 0.16677282 3.41656024 0 0 Z " fill="#737373" transform="translate(349,497)"/>
<path d="M0 0 C2.31 0.66 4.62 1.32 7 2 C7.04254356 3.99954746 7.04080783 6.00041636 7 8 C6 9 6 9 2.5625 9.1875 C-1 9 -1 9 -3 7 C-3 6.01 -3 5.02 -3 4 C-2.01 3.34 -1.02 2.68 0 2 C0 1.34 0 0.68 0 0 Z M0 4 C0.33 4.66 0.66 5.32 1 6 C1.99 6 2.98 6 4 6 C4 5.34 4 4.68 4 4 C2.68 4 1.36 4 0 4 Z " fill="#ACACAC" transform="translate(65,497)"/>
<path d="M0 0 C3.37462715 0.54723683 5.08235 1.0549 8 3 C8.1875 6.125 8.1875 6.125 8 9 C8.66 9.33 9.32 9.66 10 10 C9.01 10 8.02 10 7 10 C6.67 9.34 6.34 8.68 6 8 C5.34 8.66 4.68 9.32 4 10 C0.875 9.625 0.875 9.625 -2 9 C-2 8.34 -2 7.68 -2 7 C-0.35 7 1.3 7 3 7 C3 5.68 3 4.36 3 3 C2.34 2.67 1.68 2.34 1 2 C0.67 1.34 0.34 0.68 0 0 Z " fill="#7A7A7A" transform="translate(451,496)"/>
<path d="M0 0 C2.31 0 4.62 0 7 0 C6.67 0.66 6.34 1.32 6 2 C3.9375 2.625 3.9375 2.625 2 3 C2.27034634 5.43717258 2.27034634 5.43717258 3 8 C3.99 8.66 4.98 9.32 6 10 C3.625 10.125 3.625 10.125 1 10 C-1 8 -1 8 -1.125 5.375 C-1.08375 4.59125 -1.0425 3.8075 -1 3 C-1.66 3 -2.32 3 -3 3 C-3 4.65 -3 6.3 -3 8 C-3.33 8 -3.66 8 -4 8 C-4 6.02 -4 4.04 -4 2 C-2.68 2 -1.36 2 0 2 C0 1.34 0 0.68 0 0 Z " fill="#969695" transform="translate(48,496)"/>
<path d="M0 0 C0.99 0 1.98 0 3 0 C3.69965443 1.26418246 4.38434763 2.53665402 5.0625 3.8125 C5.63677734 4.87404297 5.63677734 4.87404297 6.22265625 5.95703125 C7 8 7 8 6 11 C5.67 11.66 5.34 12.32 5 13 C5.99 13.33 6.98 13.66 8 14 C6.68 14 5.36 14 4 14 C3.32739649 12.23141309 2.66211605 10.46003984 2 8.6875 C1.62875 7.70136719 1.2575 6.71523438 0.875 5.69921875 C0 3 0 3 0 0 Z " fill="#8E8E8E" transform="translate(12,492)"/>
<path d="M0 0 C1.65 0 3.3 0 5 0 C4.814375 0.61875 4.62875 1.2375 4.4375 1.875 C3.76313824 4.04160178 3.76313824 4.04160178 5 6 C2.36 5.67 -0.28 5.34 -3 5 C-3.33 6.32 -3.66 7.64 -4 9 C-4.66 8.67 -5.32 8.34 -6 8 C-6 6.68 -6 5.36 -6 4 C-4.02 3.67 -2.04 3.34 0 3 C0 2.01 0 1.02 0 0 Z " fill="#A6A6A6" transform="translate(361,496)"/>
<path d="M0 0 C2.64 0 5.28 0 8 0 C8 1.98 8 3.96 8 6 C6.02 6.33 4.04 6.66 2 7 C2 5.35 2 3.7 2 2 C1.34 2 0.68 2 0 2 C0 1.34 0 0.68 0 0 Z " fill="#C6C6C6" transform="translate(406,499)"/>
<path d="M0 0 C0.99 0 1.98 0 3 0 C3.33 0.66 3.66 1.32 4 2 C4.66 2 5.32 2 6 2 C6 2.99 6 3.98 6 5 C4.68 4.67 3.36 4.34 2 4 C2.33 4.99 2.66 5.98 3 7 C3 7.99 3 8.98 3 10 C1.68 9.67 0.36 9.34 -1 9 C-1.5625 7.0625 -1.5625 7.0625 -2 5 C-1.67 4.67 -1.34 4.34 -1 4 C-2.32 3.34 -3.64 2.68 -5 2 C-3.35 2 -1.7 2 0 2 C0 1.34 0 0.68 0 0 Z " fill="#5B5B5B" transform="translate(383,496)"/>
<path d="M0 0 C0.99 0 1.98 0 3 0 C3 0.66 3 1.32 3 2 C3.66 2 4.32 2 5 2 C5 2.66 5 3.32 5 4 C4.01 4 3.02 4 2 4 C2 5.98 2 7.96 2 10 C2.66 10 3.32 10 4 10 C4 10.66 4 11.32 4 12 C2.68 12 1.36 12 0 12 C-0.19477739 10.37585622 -0.38059458 8.75063577 -0.5625 7.125 C-0.66691406 6.22007812 -0.77132812 5.31515625 -0.87890625 4.3828125 C-1 2 -1 2 0 0 Z " fill="#CDCDCD" transform="translate(42,494)"/>
<path d="M0 0 C1.37918793 0.12744971 2.75733135 0.28117302 4.125 0.5 C4.125 0.83 4.125 1.16 4.125 1.5 C1.485 1.5 -1.155 1.5 -3.875 1.5 C-3.545 3.81 -3.215 6.12 -2.875 8.5 C-5.515 8.5 -8.155 8.5 -10.875 8.5 C-5.99371376 -0.07574994 -5.99371376 -0.07574994 0 0 Z " fill="#6C6C6C" transform="translate(409.875,497.5)"/>
<path d="M0 0 C0.66 0.33 1.32 0.66 2 1 C2.125 3.375 2.125 3.375 2 6 C1.34 6.66 0.68 7.32 0 8 C-3.125 7.625 -3.125 7.625 -6 7 C-5.67 5.68 -5.34 4.36 -5 3 C-3.68 3 -2.36 3 -1 3 C-0.67 2.01 -0.34 1.02 0 0 Z " fill="#767676" transform="translate(366,498)"/>
<path d="M0 0 C0.99 0 1.98 0 3 0 C3 0.66 3 1.32 3 2 C3.66 2 4.32 2 5 2 C5 2.66 5 3.32 5 4 C4.34 4 3.68 4 3 4 C3 5.98 3 7.96 3 10 C3.66 10 4.32 10 5 10 C5 10.66 5 11.32 5 12 C3.68 12 2.36 12 1 12 C0.67 8.04 0.34 4.08 0 0 Z " fill="#C3C3C3" transform="translate(73,494)"/>
<path d="M0 0 C2.64 0 5.28 0 8 0 C8.33 0.99 8.66 1.98 9 3 C8.67 3.66 8.34 4.32 8 5 C7.01 5 6.02 5 5 5 C5 4.34 5 3.68 5 3 C4.01 3 3.02 3 2 3 C1.67 4.32 1.34 5.64 1 7 C0.67 4.69 0.34 2.38 0 0 Z " fill="#909090" transform="translate(33,496)"/>
<path d="M0 0 C0.66 1.32 1.32 2.64 2 4 C2.99 3.67 3.98 3.34 5 3 C5.33 2.01 5.66 1.02 6 0 C6.66 0 7.32 0 8 0 C7.67 2.31 7.34 4.62 7 7 C5.00045254 7.04254356 2.99958364 7.04080783 1 7 C0 6 0 6 -0.0625 2.9375 C-0.041875 1.968125 -0.02125 0.99875 0 0 Z " fill="#C4C4C4" transform="translate(79,499)"/>
<path d="M0 0 C0.66 0 1.32 0 2 0 C2 1.65 2 3.3 2 5 C5.465 4.505 5.465 4.505 9 4 C8.34 5.32 7.68 6.64 7 8 C4.625 8.1875 4.625 8.1875 2 8 C-0.1519437 4.77208445 -0.20086443 3.71599191 0 0 Z " fill="#BFBFBF" transform="translate(32,498)"/>
<path d="M0 0 C0.33 0 0.66 0 1 0 C1 1.98 1 3.96 1 6 C1.4125 5.484375 1.825 4.96875 2.25 4.4375 C2.8275 3.963125 3.405 3.48875 4 3 C6.1875 3.3125 6.1875 3.3125 8 4 C7.67 4.66 7.34 5.32 7 6 C6.01 6 5.02 6 4 6 C4 6.99 4 7.98 4 9 C3.01 9 2.02 9 1 9 C0.67 9.99 0.34 10.98 0 12 C0 8.04 0 4.08 0 0 Z " fill="#DBDBDB" transform="translate(98,493)"/>
<path d="M0 0 C1.98 0 3.96 0 6 0 C6.33 1.65 6.66 3.3 7 5 C6.34 5 5.68 5 5 5 C5 4.34 5 3.68 5 3 C1.88214887 3.64644661 1.88214887 3.64644661 1 6 C0.34 6 -0.32 6 -1 6 C-0.67 4.02 -0.34 2.04 0 0 Z " fill="#BBBBBB" transform="translate(89,496)"/>
<path d="M0 0 C0.99 0.33 1.98 0.66 3 1 C2.34 1 1.68 1 1 1 C1 2.65 1 4.3 1 6 C0.01 6 -0.98 6 -2 6 C-2.33 6.99 -2.66 7.98 -3 9 C-3.99 9 -4.98 9 -6 9 C-6.33 7.02 -6.66 5.04 -7 3 C-5.68 4.32 -4.36 5.64 -3 7 C-2.814375 6.1028125 -2.814375 6.1028125 -2.625 5.1875 C-2 3 -2 3 0 0 Z " fill="#D3D3D2" transform="translate(451,497)"/>
<path d="M0 0 C-1.32 0.33 -2.64 0.66 -4 1 C-4 1.66 -4 2.32 -4 3 C-2.68 3.33 -1.36 3.66 0 4 C-0.33 4.66 -0.66 5.32 -1 6 C-2.32 6 -3.64 6 -5 6 C-5 5.01 -5 4.02 -5 3 C-5.66 3 -6.32 3 -7 3 C-7 2.01 -7 1.02 -7 0 C-4.3333581 -1.33332095 -2.83319697 -0.67102033 0 0 Z " fill="#B7B7B7" transform="translate(383,500)"/>
<path d="M0 0 C1.65 0 3.3 0 5 0 C5 0.99 5 1.98 5 3 C4.34 3 3.68 3 3 3 C2.67 4.98 2.34 6.96 2 9 C1.34 9 0.68 9 0 9 C0 6.03 0 3.06 0 0 Z " fill="#DEDEDD" transform="translate(57,496)"/>
<path d="M0 0 C0.33 0.66 0.66 1.32 1 2 C3.97 2 6.94 2 10 2 C10.33 2.66 10.66 3.32 11 4 C7.51453502 4.87136625 5.42947121 4.8573678 2 4 C-0.68149993 4.38567131 -0.68149993 4.38567131 -3 5 C-2.67 4.01 -2.34 3.02 -2 2 C-1.34 2 -0.68 2 0 2 C0 1.34 0 0.68 0 0 Z " fill="#747474" transform="translate(434,501)"/>
<path d="M0 0 C0.66 0 1.32 0 2 0 C1.95875 0.78375 1.9175 1.5675 1.875 2.375 C1.71271266 5.16116119 1.71271266 5.16116119 4 7 C1.03 7 -1.94 7 -5 7 C-4.01 6.67 -3.02 6.34 -2 6 C-2.33 4.68 -2.66 3.36 -3 2 C-2.34 2 -1.68 2 -1 2 C-0.67 1.34 -0.34 0.68 0 0 Z " fill="#D2D3D3" transform="translate(430,498)"/>
<path d="M0 0 C1.65 0 3.3 0 5 0 C5 0.99 5 1.98 5 3 C4.01 3 3.02 3 2 3 C2 3.99 2 4.98 2 6 C2.66 6.33 3.32 6.66 4 7 C2.68 7 1.36 7 0 7 C0 4.69 0 2.38 0 0 Z " fill="#9D9D9D" transform="translate(399,498)"/>
<path d="M0 0 C3.48305042 0.64500934 6.06202164 2.04134776 9 4 C9 4.33 9 4.66 9 5 C5.625 5.125 5.625 5.125 2 5 C1.34 4.34 0.68 3.68 0 3 C0 2.01 0 1.02 0 0 Z " fill="#8C8C8C" transform="translate(62,501)"/>
<path d="M0 0 C1.67542976 0.28604898 3.34385343 0.61781233 5 1 C5 1.99 5 2.98 5 4 C2.5 5.6875 2.5 5.6875 0 7 C0.33 5.35 0.66 3.7 1 2 C0.34 1.67 -0.32 1.34 -1 1 C-0.67 0.67 -0.34 0.34 0 0 Z " fill="#8A8A8A" transform="translate(431,496)"/>
<path d="M0 0 C1.32 0.33 2.64 0.66 4 1 C4 2.98 4 4.96 4 7 C4.66 7.33 5.32 7.66 6 8 C5.01 8 4.02 8 3 8 C2.67 7.34 2.34 6.68 2 6 C1.34 6 0.68 6 0 6 C0 4.02 0 2.04 0 0 Z " fill="#8A8A89" transform="translate(455,498)"/>
<path d="M0 0 C2.475 0.495 2.475 0.495 5 1 C4.42415568 3.38564077 3.77772405 5.66682784 3 8 C2.34 7.67 1.68 7.34 1 7 C1.020625 6.21625 1.04125 5.4325 1.0625 4.625 C1.18684063 2.01885039 1.18684063 2.01885039 0 0 Z " fill="#676766" transform="translate(445,496)"/>
<path d="M0 0 C0.99 0 1.98 0 3 0 C3.33 2.64 3.66 5.28 4 8 C1.10067643 5.60490662 0.49831724 3.68754757 0 0 Z " fill="#929292" transform="translate(326,496)"/>
<path d="M0 0 C1.67542976 0.28604898 3.34385343 0.61781233 5 1 C5 2.32 5 3.64 5 5 C3.02 5 1.04 5 -1 5 C0.32 4.67 1.64 4.34 3 4 C3 3.34 3 2.68 3 2 C1.68 1.67 0.36 1.34 -1 1 C-0.67 0.67 -0.34 0.34 0 0 Z " fill="#E8E8E8" transform="translate(26,496)"/>
<path d="M0 0 C1.65 0 3.3 0 5 0 C4.67 2.31 4.34 4.62 4 7 C3.34 7 2.68 7 2 7 C2 5.35 2 3.7 2 2 C1.34 2 0.68 2 0 2 C0 1.34 0 0.68 0 0 Z " fill="#B3B3B3" transform="translate(406,499)"/>
<path d="M0 0 C0.33 0.99 0.66 1.98 1 3 C1.66 3 2.32 3 3 3 C3.66 4.65 4.32 6.3 5 8 C3.33333333 8 1.66666667 8 0 8 C0 5.36 0 2.72 0 0 Z " fill="#E6E6E6" transform="translate(384,497)"/>
<path d="M0 0 C0.66 0 1.32 0 2 0 C2.33 2.31 2.66 4.62 3 7 C2.01 7.33 1.02 7.66 0 8 C0 5.36 0 2.72 0 0 Z " fill="#E2E2E2" transform="translate(347,497)"/>
<path d="M0 0 C0.66 0 1.32 0 2 0 C1.67 1.98 1.34 3.96 1 6 C-0.32 6 -1.64 6 -3 6 C-2 3 -2 3 0 0 Z " fill="#DBDBDB" transform="translate(20,499)"/>
<path d="M0 0 C0.99 0 1.98 0 3 0 C3 0.66 3 1.32 3 2 C3.66 2 4.32 2 5 2 C5 2.66 5 3.32 5 4 C4.01 4 3.02 4 2 4 C1.67 4.66 1.34 5.32 1 6 C0.67 4.02 0.34 2.04 0 0 Z " fill="#D9D9D9" transform="translate(73,494)"/>
<path d="M0 0 C0.33 1.32 0.66 2.64 1 4 C-0.98 4.33 -2.96 4.66 -5 5 C-4.1875 3.0625 -4.1875 3.0625 -3 1 C-2.01 0.67 -1.02 0.34 0 0 Z " fill="#7A7A7A" transform="translate(467,501)"/>
<path d="M0 0 C1.89213369 2.38573379 3.02391783 4.07175348 4 7 C2.68 7 1.36 7 0 7 C-0.93423645 3.98968256 -1.04449911 3.13349732 0 0 Z " fill="#8E8E8E" transform="translate(102,499)"/>
<path d="M0 0 C-0.99 0.495 -0.99 0.495 -2 1 C-3.13350534 3.01669827 -3.13350534 3.01669827 -4 5 C-4.66 4.67 -5.32 4.34 -6 4 C-6 2.68 -6 1.36 -6 0 C-3.50907189 -1.24546405 -2.58919267 -0.7767578 0 0 Z " fill="#E7E7E7" transform="translate(361,500)"/>
<path d="M0 0 C1.65 0 3.3 0 5 0 C5.33 1.65 5.66 3.3 6 5 C4.35 4.67 2.7 4.34 1 4 C1.33 3.34 1.66 2.68 2 2 C1.34 1.34 0.68 0.68 0 0 Z " fill="#666867" transform="translate(424,496)"/>
</svg>
